<svg width="375" height="800" viewBox="0 0 375 800" fill="none" xmlns="http://www.w3.org/2000/svg">
  <style>
        .top{
            
            animation: rotate 20s ease-in-out infinite;
             transform-box: fill-box;
  transform-origin: center;
        }

        @keyframes rotate{
            0%{
                
                transform: translateX(0)
            }
            100%{
                transform: translateX(-90rem)
            
            }
        }
    </style>
<g clip-path="url(#clip0_461_178)">
<path d="M0 0L375 0L375 800L0 800L0 0Z" fill="#F0F0F0"/>
<path class="bottom" d="M322.207 0L329.345 55.1356C332.375 110.271 338.377 220.542 340.708 330.3C343.039 440.315 341.698 549.561 339.892 659.575C338.086 769.333 335.871 879.604 331.093 989.363C326.344 1099.38 319.06 1208.62 315.943 1318.64C312.854 1428.4 313.903 1538.67 315.943 1648.42C317.982 1758.44 321.012 1867.69 322.207 1977.7C323.43 2087.46 322.848 2197.73 322.556 2252.86L322.265 2308H375V2252.86C375 2197.73 375 2087.46 375 1977.7C375 1867.69 375 1758.44 375 1648.42C375 1538.67 375 1428.4 375 1318.64C375 1208.62 375 1099.38 375 989.363C375 879.604 375 769.333 375 659.575C375 549.561 375 440.315 375 330.3C375 220.542 375 110.271 375 55.1356V0L322.207 0Z" fill="#FFAA5B"/>
<path class="top" d="M42 0L33.6143 123.753C31.8896 178.889 29.0207 220.542 27.6941 330.3C26.3674 440.315 24.9578 549.561 25.986 659.575C27.0141 769.333 27.2961 840.668 30.0157 950.426C32.7188 1060.44 35.1856 1208.62 36.96 1318.64C38.7178 1428.4 38.1208 1466.24 36.96 1576C35.7992 1686.01 34.2942 1736.39 33.6143 1846.4C32.9178 1956.16 41.8342 2252.86 42 2308H30.0157H-1.017e-06L-1.017e-06 2252.86C-1.017e-06 2197.73 -1.017e-06 2087.46 -1.017e-06 1977.7C-1.017e-06 1867.68 -1.017e-06 1758.44 -1.017e-06 1648.42C-1.017e-06 1538.67 -1.017e-06 1428.4 -1.017e-06 1318.64C-1.017e-06 1208.62 -1.017e-06 1099.38 -1.017e-06 989.363C-1.017e-06 879.604 -1.017e-06 769.333 -1.017e-06 659.575C-1.017e-06 549.561 -1.017e-06 440.315 -1.017e-06 330.3C-1.017e-06 220.542 -1.017e-06 110.271 -1.017e-06 55.1356L-1.017e-06 0L42 0Z" fill="#5BB0FF"/>
</g>
<defs>
<clipPath id="clip0_461_178">
<rect width="375" height="800" fill="white" transform="matrix(-1 0 0 1 375 0)"/>
</clipPath>
</defs>
</svg>
