<svg width="499" height="921" viewBox="0 0 499 921" fill="none" xmlns="http://www.w3.org/2000/svg">
<style>

    .top {
            animation: moveX 50s infinite;

}

.bottom {
        animation: moveX 50s infinite;

}
    @keyframes moveX {
    0% {
        transform: translateX(0);
    }
    50% {
        transform: translateX(-110rem);
    }
    0% {
        transform: translateX(0rem);
    }
}
@keyframes moveY {
    0% {
        transform: translateY(0);
    }
    50% {
        transform: translateY(-110rem);
    }
    0% {
        transform: translateY(0rem);
    }
}
</style>
<g clip-path="url(#clip0_470_208)">
<path d="M0 0L499 0L499 921L0 921L0 0Z" fill="#F0F0F0"/>
<path d="M0 0L499 0L499 921L0 921L0 0Z" fill="#F0F0F0"/>
<path d="M3071 676.475L2990.23 742.123C2909.46 769.99 2747.93 825.187 2587.14 846.623C2425.98 868.059 2265.95 855.734 2104.79 839.121C1944 822.508 1782.46 802.144 1621.68 758.2C1460.52 714.524 1300.48 647.537 1139.32 618.866C978.537 590.463 817 600.109 656.215 618.866C495.054 637.622 335.019 665.489 173.858 676.475C13.0731 687.729 -148.463 682.37 -229.232 679.691L-310 677.011V1162H-229.232C-148.463 1162 13.0731 1162 173.858 1162C335.019 1162 495.054 1162 656.215 1162C817 1162 978.537 1162 1139.32 1162C1300.48 1162 1460.52 1162 1621.68 1162C1782.46 1162 1944 1162 2104.79 1162C2265.95 1162 2425.98 1162 2587.14 1162C2747.93 1162 2909.46 1162 2990.23 1162H3071V676.475Z" fill="#FFAA5B"  class="bottom"/> 
<path d="M3071 389L2879.36 274.595C2793.99 251.066 2729.48 211.926 2559.52 193.826C2389.16 175.727 2219.99 156.496 2049.63 170.523C1879.67 184.55 1769.2 188.396 1599.24 225.5C1428.88 262.378 1199.42 296.032 1029.05 320.24C859.091 344.222 800.487 336.077 630.523 320.24C460.163 304.403 382.161 283.871 211.8 274.595C41.8364 265.093 -417.621 386.738 -503 389V225.5L-503 -184H-417.621C-332.242 -184 -161.485 -184 8.47902 -184C178.84 -184 348.009 -184 518.37 -184C688.334 -184 859.091 -184 1029.05 -184C1199.42 -184 1368.58 -184 1538.95 -184C1708.91 -184 1879.67 -184 2049.63 -184C2219.99 -184 2389.16 -184 2559.52 -184C2729.48 -184 2900.24 -184 2985.62 -184H3071L3071 389Z" fill="#5BB0FF" class="top"/>
</g>
<defs>
<clipPath id="clip0_470_208">
<rect width="499" height="921" fill="white" transform="matrix(-1 0 0 1 499 0)"/>
</clipPath>
</defs>
</svg>
