<svg width="20" height="18" viewBox="0 0 20 18" fill="none" xmlns="http://www.w3.org/2000/svg">
<path d="M17.071 10.142L11.414 15.8C11.0389 16.1749 10.5303 16.3856 9.99996 16.3856C9.46963 16.3856 8.96101 16.1749 8.58596 15.8L2.92896 10.143C2.46133 9.67945 2.08986 9.12809 1.83589 8.5206C1.58191 7.9131 1.45043 7.26142 1.44899 6.60297C1.44754 5.94452 1.57617 5.29226 1.82748 4.68366C2.0788 4.07505 2.44785 3.52208 2.91344 3.05648C3.37904 2.59089 3.93201 2.22184 4.54062 1.97053C5.14922 1.71921 5.80147 1.59059 6.45992 1.59203C7.11837 1.59347 7.77006 1.72495 8.37755 1.97893C8.98505 2.2329 9.53641 2.60437 9.99996 3.072C10.9415 2.15387 12.2069 1.64367 13.522 1.65191C14.8371 1.66015 16.096 2.18617 17.0259 3.11602C17.9559 4.04588 18.4821 5.30469 18.4906 6.61977C18.499 7.93485 17.989 9.2003 17.071 10.142Z" stroke="black" stroke-width="2.5" stroke-linecap="round" stroke-linejoin="round"/>
</svg>
