<svg width="64" height="64" viewBox="0 0 64 64" fill="none" xmlns="http://www.w3.org/2000/svg">
<path d="M22.0403 0.875H43.0159V6.00572H22.0403V0.875Z" fill="#111112"/>
<path d="M11.0243 6.00574H22.0403V11.1365H11.0243V6.00574Z" fill="#111112"/>
<path d="M42.7141 6.00574H52.9756V11.2874H42.7141V6.00574Z" fill="#111112"/>
<path d="M58.4081 21.5488H63.3879V32.263H58.4081V21.5488Z" fill="#111112"/>
<path d="M0.611928 21.8506H5.89355V32.5647H0.611928V21.8506Z" fill="#111112"/>
<path d="M5.89367 11.1365H11.1753V22.0015H5.89367V11.1365Z" fill="#111112"/>
<path d="M52.9756 11.4382H58.5591V22.0015H52.9756V11.4382Z" fill="#111112"/>
<path d="M53.1266 32.2629H58.4082V37.6955H53.1266V32.2629Z" fill="#111112"/>
<path d="M26.7184 26.8304H37.5835V32.263H26.7184V26.8304Z" fill="#111112"/>
<path d="M53.1266 37.6954H58.4082V42.9771H53.1266V37.6954Z" fill="#FEFEF9"/>
<path d="M37.5834 32.2629H42.865V37.6955H37.5834V32.2629Z" fill="#111112"/>
<path d="M21.8896 32.2629H26.8694V37.6955H21.8896V32.2629Z" fill="#111112"/>
<path d="M5.89367 32.2629H11.1753V37.6955H5.89367V32.2629Z" fill="#111112"/>
<path d="M11.0245 37.5446H26.8694V42.9771H11.0245V37.5446Z" fill="#111112"/>
<path d="M37.5834 37.5446H53.1265V42.9771H37.5834V37.5446Z" fill="#111112"/>
<path d="M11.1752 11.1365H22.0403V37.5446H11.1752V11.1365Z" fill="#9D201E"/>
<path d="M42.4123 22.0015H53.1265V37.5445H42.4123V22.0015Z" fill="#E21826"/>
<path d="M53.1266 22.0015H58.4082V32.2629H53.1266V22.0015Z" fill="#E21826"/>
<path d="M47.694 11.2874H52.9756V22.0015H47.694V11.2874Z" fill="#E21826"/>
<path d="M22.0403 16.7198H32.1509V26.8304H22.0403V16.7198Z" fill="#E21826"/>
<path d="M22.0402 26.8304H26.7183V32.263H22.0402V26.8304Z" fill="#9D201E"/>
<path d="M37.5834 26.8304H42.865V32.263H37.5834V26.8304Z" fill="#E21826"/>
<path d="M32.151 22.0015H37.5835V26.8304H32.151V22.0015Z" fill="#9D201E"/>
<path d="M37.4325 22.0015H42.4124V26.8304H37.4325V22.0015Z" fill="#ED7072"/>
<path d="M32.151 16.7198H37.5835V22.0015H32.151V16.7198Z" fill="#ED7072"/>
<path d="M37.4325 16.7198H42.865V22.0015H37.4325V16.7198Z" fill="#FEFEF9"/>
<path d="M42.4122 16.7198H47.6938V22.0015H42.4122V16.7198Z" fill="#ED7072"/>
<path d="M32.0001 11.2874H37.5835V16.7199H32.0001V11.2874Z" fill="#E21826"/>
<path d="M37.4325 11.2874H42.865V16.7199H37.4325V11.2874Z" fill="#ED7072"/>
<path d="M42.4122 11.2874H47.6938V16.7199H42.4122V11.2874Z" fill="#E21826"/>
<path d="M37.4325 6.00574H42.865V11.2874H37.4325V6.00574Z" fill="#E21826"/>
<path d="M32.0001 6.00574H37.4326V11.2874H32.0001V6.00574Z" fill="#9D201E"/>
<path d="M21.8894 6.00574H32.1509V16.7199H21.8894V6.00574Z" fill="#9D201E"/>
<path d="M5.89367 22.0015H11.1753V32.2629H5.89367V22.0015Z" fill="#9D201E"/>
<path d="M5.89367 37.5446H11.1753V42.9771H5.89367V37.5446Z" fill="#B9B9B3"/>
<path d="M32.151 32.2629H37.5835V37.6955H32.151V32.2629Z" fill="#D9D9D9"/>
<path d="M32.151 37.6954H37.5835V42.9771H32.151V37.6954Z" fill="#B9B9B3"/>
<path d="M26.8693 32.2629H32.1509V42.9771H26.8693V32.2629Z" fill="#B9B9B3"/>
<path d="M22.0403 58.3693H43.0159V63.5H22.0403V58.3693Z" fill="#111112"/>
<path d="M11.0243 53.2385H22.0403V58.3692H11.0243V53.2385Z" fill="#111112"/>
<path d="M43.0159 53.2385H52.9756V58.3692H43.0159V53.2385Z" fill="#111112"/>
<path d="M58.4081 32.2629H63.3879V42.9771H58.4081V32.2629Z" fill="#111112"/>
<path d="M0.611928 32.2629H5.89355V42.9771H0.611928V32.2629Z" fill="#111112"/>
<path d="M5.89367 42.9771H11.1753V53.2385H5.89367V42.9771Z" fill="#111112"/>
<path d="M52.9757 42.9771H58.2573V53.2385H52.9757V42.9771Z" fill="#111112"/>
<path d="M26.7184 42.9771H37.5835V48.4096H26.7184V42.9771Z" fill="#111112"/>
<path d="M37.5834 42.9771H52.9756V48.4096H37.5834V42.9771Z" fill="#D9D9D9"/>
<path d="M37.5834 42.9771H52.9756V48.4096H37.5834V42.9771Z" fill="#FEFEF9"/>
<path d="M11.1754 42.9771H26.8694V53.2385H11.1754V42.9771Z" fill="#B9B9B3"/>
<path d="M43.0159 53.2385H22.0403V58.3692H43.0159V53.2385Z" fill="#B9B9B3"/>
<path d="M52.9756 48.4097H26.8693V53.2386H52.9756V48.4097Z" fill="#FEFEF9"/>
</svg>
