<svg width="1767" height="1024" viewBox="0 0 1767 1024" fill="none" xmlns="http://www.w3.org/2000/svg">
<g clip-path="url(#clip0_485_239)">
<path d="M0 0L1767 0L1767 1024L0 1024L0 0Z" fill="#F0F0F0"/>
<path d="M0 0L1767 0L1767 1024L0 1024L0 0Z" fill="#F0F0F0"/>
<path d="M0 0L1767 0L1767 1024L0 1024L0 0Z" fill="#F0F0F0"/>
<path d="M10874.7 752.129L10588.7 825.118C10302.6 856.101 9730.63 917.472 9161.28 941.305C8590.6 965.139 8023.9 951.434 7453.22 932.964C6883.86 914.493 6311.85 891.851 5742.5 842.993C5171.81 794.433 4605.12 719.954 4034.43 688.077C3465.08 656.498 2893.07 667.223 2323.71 688.077C1753.03 708.931 1186.33 739.914 615.649 752.129C46.2946 764.641 -525.72 758.683 -811.727 755.704L-1097.73 752.725V1291.95H-811.727C-525.72 1291.95 46.2946 1291.95 615.649 1291.95C1186.33 1291.95 1753.03 1291.95 2323.71 1291.95C2893.07 1291.95 3465.08 1291.95 4034.43 1291.95C4605.12 1291.95 5171.81 1291.95 5742.5 1291.95C6311.85 1291.95 6883.86 1291.95 7453.22 1291.95C8023.9 1291.95 8590.6 1291.95 9161.28 1291.95C9730.63 1291.95 10302.6 1291.95 10588.7 1291.95H10874.7V752.129Z" fill="#FFAA5B"/>
<path d="M10874.7 432.504L10196.1 305.304C9893.73 279.144 9665.33 235.626 9063.47 215.503C8460.21 195.379 7861.17 173.998 7257.91 189.594C6656.05 205.189 6264.9 209.466 5663.04 250.719C5059.78 291.721 4247.23 329.139 3643.97 356.054C3042.11 382.718 2834.59 373.662 2232.74 356.054C1629.47 338.446 1353.26 315.618 750.001 305.304C148.147 294.739 -1478.83 429.988 -1781.16 432.504V250.719L-1781.16 -204.578L-1478.83 -204.578C-1176.5 -204.578 -571.829 -204.578 30.0255 -204.578C633.287 -204.578 1232.33 -204.578 1835.59 -204.578C2437.45 -204.578 3042.11 -204.578 3643.97 -204.578C4247.23 -204.578 4846.27 -204.578 5449.53 -204.578C6051.39 -204.578 6656.05 -204.578 7257.91 -204.578C7861.17 -204.578 8460.21 -204.578 9063.47 -204.578C9665.33 -204.578 10270 -204.578 10572.3 -204.578H10874.7L10874.7 432.504Z" fill="#5BB0FF"/>
</g>
<defs>
<clipPath id="clip0_485_239">
<rect width="1767" height="1024" fill="white" transform="matrix(-1 0 0 1 1767 0)"/>
</clipPath>
</defs>
</svg>
